# xmcd CD database file
#
# Track frame offsets:
#	183
#	2663
#	21193
#	35103
#	46650
#	58268
#	68715
#	84098
#	100033
#	110808
#	125385
#	140593
#	153238
#	168173
#	182788
#	198393
#	200523
#
# Disc length: 2940 seconds
#
# Revision: 1
# Processed by: cddbd v1.5.2PL0 Copyright (c) Steve Scherf et al.
# Submitted via: CDex 1.70beta2
#
DISCID=e10b7a11
DTITLE=Don William - The Best of Live
DYEAR=1995
DGENRE=Country
TTITLE0=Introduction
TTITLE1=Good Ole Boys Like Me
TTITLE2=She's In Love With A Rodeo Man
TTITLE3=Some Broken Hearts Never Mend
TTITLE4=The Ties That Bind
TTITLE5=Louisiana Saturday Night
TTITLE6=Till The Rivers All Run Dry
TTITLE7=I Recall A Gypsy Woman
TTITLE8=It Must Be Love
TTITLE9=Lay Down Beside Me
TTITLE10=Lord, I Hope This Day Is Good
TTITLE11=I'm Just A Country Boy
TTITLE12=Tulsa Time
TTITLE13=Amanda
TTITLE14=You're My Best Friend
TTITLE15=Dialogue
TTITLE16=I Believe In You
EXTD=YEAR: 1995
EXTT0=
EXTT1=
EXTT2=
EXTT3=
EXTT4=
EXTT5=
EXTT6=
EXTT7=
EXTT8=
EXTT9=
EXTT10=
EXTT11=
EXTT12=
EXTT13=
EXTT14=
EXTT15=
EXTT16=
PLAYORDER=
